<svg width="46" height="46" viewBox="0 0 46 46" fill="none" xmlns="http://www.w3.org/2000/svg">
<path d="M19.6831 37.8604C19.3181 37.8605 18.9576 37.7803 18.6271 37.6255C18.2965 37.4707 18.0041 37.245 17.7705 36.9646L9.34523 26.8495C9.11225 26.6017 8.93241 26.3089 8.81677 25.989C8.70114 25.6692 8.65215 25.3291 8.67282 24.9896C8.6935 24.6501 8.7834 24.3185 8.93699 24.015C9.09058 23.7116 9.30463 23.4428 9.56596 23.2251C9.82729 23.0074 10.1304 22.8455 10.4566 22.7493C10.7828 22.6531 11.1253 22.6247 11.4629 22.6657C11.8005 22.7068 12.1262 22.8165 12.4198 22.988C12.7135 23.1596 12.9689 23.3894 13.1705 23.6634L19.3079 31.0306L32.5825 8.03789C32.9132 7.46546 33.4577 7.04783 34.0963 6.87689C34.7349 6.70594 35.4153 6.79568 35.9877 7.12637C36.5601 7.45705 36.9778 8.00159 37.1487 8.64019C37.3197 9.27879 37.2299 9.95914 36.8992 10.5316L21.8379 36.6112C21.6372 36.9585 21.3557 37.2524 21.0173 37.4678C20.6788 37.6831 20.2934 37.8137 19.8938 37.8483C19.8229 37.8551 19.7518 37.8583 19.6807 37.858L19.6831 37.8604Z" fill="white" stroke="white"/>
</svg>
